<svg xmlns="http://www.w3.org/2000/svg" enable-background="new 0 0 64 64" viewBox="0 0 64 64" id="tax">
  <path d="M47 24c0-1.104-.896-2-2-2H30c-1.104 0-2 .896-2 2s.896 2 2 2h15C46.104 26 47 25.104 47 24zM45 32h-9c-1.104 0-2 .896-2 2s.896 2 2 2h9c1.104 0 2-.896 2-2S46.104 32 45 32zM47 14c0-1.104-.896-2-2-2H25c-1.104 0-2 .896-2 2s.896 2 2 2h20C46.104 16 47 15.104 47 14z"></path>
  <path d="M61,45h-4V10c0-4.411-3.589-8-8-8H9c-4.411,0-8,3.589-8,8v7c0,1.104,0.896,2,2,2h10v3.302C6.161,23.696,1,29.756,1,37
			c0,7.247,5.166,13.309,12.01,14.699c0.051,2.729,1.13,5.289,3.066,7.225C18.059,60.908,20.695,62,23.5,62H53
			c2.672,0,5.183-1.04,7.071-2.929C61.96,57.183,63,54.671,63,52v-5C63,45.896,62.104,45,61,45z M5,10c0-2.206,1.794-4,4-4
			s4,1.794,4,4v5H5V10z M5,37c0-6.065,4.935-11,11-11s11,4.935,11,11s-4.935,11-11,11S5,43.065,5,37z M17.023,51.948
			C24.817,51.419,31,44.926,31,37c0-7.933-6.195-14.431-14-14.949V17v-1.8V10c0-1.458-0.398-2.822-1.082-4H49c2.206,0,4,1.794,4,4
			v35H32c-1.104,0-2,0.896-2,2v4.5c0,1.71-0.694,3.385-1.904,4.596C26.868,57.324,25.235,58,23.5,58s-3.368-0.676-4.596-1.904
			C17.8,54.991,17.132,53.5,17.023,51.948z M59,52c0,1.603-0.624,3.11-1.757,4.243C56.11,57.376,54.604,58,53,58H31.737
			C33.2,56.154,34,53.89,34,51.5V49h25V52z"></path>
  <path d="M20.414 32.586c-.781-.781-2.047-.781-2.828 0l-6 6c-.781.781-.781 2.047 0 2.828C11.977 41.805 12.488 42 13 42s1.023-.195 1.414-.586l6-6C21.195 34.633 21.195 33.367 20.414 32.586zM14.02 33c0-1.104-.895-2-2-2h-.01c-1.104 0-1.995.896-1.995 2s.9 2 2.005 2C13.125 35 14.02 34.104 14.02 33zM20.01 39c-1.104 0-1.995.896-1.995 2s.9 2 2.005 2c1.105 0 2-.896 2-2s-.895-2-2-2H20.01z"></path>
</svg>
