<svg xmlns="http://www.w3.org/2000/svg" viewBox="0 0 24 24" id="contract">
  <path d="M11.39,18.12l-.75,.4-.21-.2c-.19-.18-.46-.22-.69-.09l-.3,.16-.15-.35c-.08-.2-.26-.33-.47-.36-.21-.02-.41,.06-.54,.22l-1.07,1.35c-.13,.16-.1,.4,.06,.53,.07,.05,.15,.08,.23,.08,.11,0,.22-.05,.29-.14l.91-1.15,.12,.27c.06,.15,.19,.27,.35,.33,.16,.06,.33,.04,.48-.04l.35-.19,.2,.2c.19,.18,.46,.22,.69,.1l.85-.45c.18-.1,.25-.32,.16-.51s-.33-.25-.51-.16Z"></path>
  <path d="M18.09,2.21H5.91c-.48,0-.88,.39-.88,.88V20.92c0,.48,.39,.88,.88,.88h12.18c.48,0,.88-.39,.88-.88V3.08c0-.48-.39-.88-.88-.88Zm.12,18.71c0,.07-.06,.12-.12,.12H5.91c-.07,0-.12-.06-.12-.12V3.08c0-.07,.06-.12,.12-.12h12.18c.07,0,.12,.06,.12,.12V20.92Z"></path>
  <path d="M9.15 5.77h5.7c.32 0 .58-.26.58-.58v-.69c0-.32-.26-.58-.58-.58h-5.7c-.32 0-.58.26-.58.58v.69c0 .32.26.58.58.58zm.17-1.1h5.36v.35h-5.36v-.35zM7.43 7.96h9.13c.21 0 .38-.17.38-.38s-.17-.38-.38-.38H7.43c-.21 0-.38.17-.38.38s.17.38.38.38zM7.43 9.87h9.13c.21 0 .38-.17.38-.38s-.17-.38-.38-.38H7.43c-.21 0-.38.17-.38.38s.17.38.38.38zM12.84 11.4c0-.21-.17-.38-.38-.38H7.43c-.21 0-.38.17-.38.38s.17.38.38.38h5.03c.21 0 .38-.17.38-.38zM17.1 10.98l-.75-.37c-.18-.09-.38-.1-.58-.03-.21.07-.39.23-.5.44l-2.48 5.03c-.12.24-.18.5-.19.75l-.03 1.1c0 .27.12.5.34.61.08.04.17.06.26.06.15 0 .3-.05.43-.16l.86-.7c.19-.16.36-.36.47-.59l2.49-5.04h0c.2-.42.06-.91-.33-1.1zm-1.15.37c.02-.05.06-.07.07-.07l.75.37s.02.05 0 .1l-.32.65-.8-.4.32-.65zm-2.61 6.31l.02-.84s0 0 0 0l.64.31-.66.53zm1.07-1.17l-.8-.4 1.69-3.43.8.4-1.69 3.43z"></path>
</svg>
